<svg xmlns="http://www.w3.org/2000/svg" width="2243.632" height="1010.245" viewBox="0 0 2243.632 1010.245">
  <g id="logo_white" transform="translate(4444.5 3324.522)">
    <g id="Group_2149" data-name="Group 2149" transform="translate(-4431.336 -3324.522)">
      <path id="Path_18" data-name="Path 18" d="M394,250.431c0-138.785-192.8-140.152-192.8-198.264,0-15.041,11.622-24.612,26.663-24.612,19.826,0,31.449,12.99,26.663,38.286h163.4C430.23-32.608,348.873-90.72,236.751-90.72c-116.908,0-201.683,58.8-201.683,164.081,0,139.469,193.479,129.214,193.479,190.744,0,15.724-12.99,23.928-28.714,23.928-26.663,0-37.6-13.673-34.867-41.7H3.62C-8.686,355.033,75.405,406.308,197.1,406.308,321.527,406.308,394,338.625,394,250.431Zm34.184,151.091H579.954l42.388-242.7,32.133,242.7h129.9L901.279,160.871,858.891,401.523h151.091l85.459-484.039H910.167L754.974,208.728,699.6-82.516H513.638Zm650.17,0h151.775l42.387-242.7,32.133,242.7h129.9l116.908-240.652-42.388,240.652h151.091l85.459-484.039H1560.337L1405.144,208.728,1349.767-82.516H1163.808Zm984.485,0h159.979L2131.885-82.516h-175.02L1694.337,401.523h159.3l36.918-73.153H2051.9ZM2035.488,214.2h-87.51l67.683-134.683Z" transform="translate(-2.426 90.72)" fill="#fff"/>
    </g>
    <g id="Group_2153" data-name="Group 2153" transform="translate(-4444.5 -2704.425)">
      <path id="Path_17" data-name="Path 17" d="M39.479,236.286c0,57.3,28.649,78.134,79.176,78.134h42.713V274.311h-34.9c-29.17,0-39.588-9.9-39.588-38.025V68.038h74.488V28.971H86.88V-42.912h-47.4V28.971H2.5V68.038H39.479Zm226.588-77.092c0-66.153,34.379-86.468,79.7-86.468h12.5V23.762c-45.318,0-76.05,19.794-92.2,51.568V28.971h-47.4V314.42h47.4Zm129.181,11.46c0,88.552,58.861,148.454,134.911,148.454,52.61,0,89.593-27.086,106.783-57.819V314.42h47.922V28.971H636.942V81.06C620.273,51.37,583.811,24.283,530.68,24.283,454.109,24.283,395.248,81.581,395.248,170.654Zm241.694.521c0,67.2-44.8,106.262-96.886,106.262s-96.365-39.588-96.365-106.783,44.276-105.22,96.365-105.22S636.942,105.021,636.942,171.175Zm110.429,0c0,90.635,57.819,147.933,139.078,147.933,70.841,0,117.2-39.588,131.786-96.365H967.187C956.769,258.684,928.641,279,886.449,279c-52.089,0-90.635-36.983-90.635-107.825,0-69.8,38.546-106.783,90.635-106.783,42.192,0,70.841,21.877,80.738,56.256h51.047c-14.585-59.9-60.944-96.365-131.786-96.365C805.19,24.283,747.371,81.581,747.371,171.175ZM1081.262,314.42h47.4V188.364L1240.655,314.42h64.591L1170.335,171.175l134.39-142.2h-66.153L1128.664,155.548V-71.04h-47.4ZM1470.889,64.392c48.964,0,90.635,30.733,90.114,86.468H1380.775C1385.984,95.124,1424.53,64.392,1470.889,64.392Zm133.348,162H1553.19c-10.418,30.733-37.5,52.61-80.217,52.61-48.443,0-89.072-31.774-92.719-89.593H1608.4a256.928,256.928,0,0,0,1.563-28.649c0-78.134-54.173-136.474-136.995-136.474-83.343,0-141.162,56.777-141.162,146.891,0,90.635,59.9,147.933,141.162,147.933C1543.814,319.108,1589.653,278.478,1604.238,226.389Zm115.638-67.2c0-66.153,34.379-86.468,79.7-86.468h12.5V23.762c-45.318,0-76.05,19.794-92.2,51.568V28.971h-47.4V314.42h47.4Z" transform="translate(431.559 71.04)" fill="#fff"/>
      <g id="Group_2152" data-name="Group 2152" transform="translate(0 104.043)">
        <g id="Group_16" data-name="Group 16" transform="translate(0 0)">
          <path id="Polygon_1" data-name="Polygon 1" d="M156.464,26.538a33,33,0,0,1,48.652,0L310.889,141.926c19.4,21.166,4.387,55.3-24.326,55.3H75.017c-28.713,0-43.728-34.133-24.326-55.3Z" fill="#fff"/>
        </g>
      </g>
    </g>
  </g>
</svg>
